<?xml version="1.0" standalone="no"?><!DOCTYPE svg PUBLIC "-//W3C//DTD SVG 1.1//EN" "http://www.w3.org/Graphics/SVG/1.1/DTD/svg11.dtd"><svg t="1600737724368" class="icon" viewBox="0 0 1024 1024" version="1.1" xmlns="http://www.w3.org/2000/svg" p-id="4797" xmlns:xlink="http://www.w3.org/1999/xlink" width="200" height="200"><defs><style type="text/css"></style></defs><path d="M89.5 479.5c0-165.1 133.9-299 299-299 85.9 0 163.1 36.4 217.7 94.4l27.6-27.6c-61.6-65.1-148.6-105.8-245.2-105.8-186.7 0-338 151.3-338 338 0 169.4 124.8 309.3 287.4 333.8l11.6-34.8 1.3-2.7C203.5 757.3 89.5 631.8 89.5 479.5z" p-id="4798" fill="#e21f24"></path><path d="M427.5 479.5c0-11.5-5.1-21.7-13-28.9L414.5 297.5l-39 0 0 145.4c-41.5 16.8-20.9 55.6-20.9 55.6l-92.8 95.3 29.9 25 97.7-100.4C410.6 517.9 427.5 500.7 427.5 479.5z" p-id="4799" fill="#e21f24"></path><path d="M773.4 609.7c42.2-27.9 70.1-75.7 70.1-130.1 0-86.2-69.8-156-156-156-86.2 0-156 69.9-156 156 0 54.4 27.9 102.2 70.1 130.1-116 36.5-200.1 144.8-200.1 272.8l39 0c0-136.4 110.6-247 247-247 136.4 0 247 110.6 247 247l39 0C973.5 754.5 889.3 646.2 773.4 609.7zM687.5 596.5c-64.6 0-117-52.4-117-117 0-64.6 52.4-117 117-117 64.6 0 117 52.4 117 117C804.5 544.1 752.1 596.5 687.5 596.5z" p-id="4800" fill="#e21f24"></path></svg>