<?xml version="1.0" standalone="no"?><!DOCTYPE svg PUBLIC "-//W3C//DTD SVG 1.1//EN" "http://www.w3.org/Graphics/SVG/1.1/DTD/svg11.dtd"><svg t="1600693697891" class="icon" viewBox="0 0 1024 1024" version="1.1" xmlns="http://www.w3.org/2000/svg" p-id="4563" xmlns:xlink="http://www.w3.org/1999/xlink" width="64" height="64"><defs><style type="text/css"></style></defs><path d="M702.103704 533.807407h-0.18963l-190.103704-1.517037c-11.757037-0.094815-21.238519-9.765926-21.143703-21.522963 0.094815-11.757037 9.765926-21.238519 21.522963-21.143703l190.103703 1.517037c11.757037 0.094815 21.238519 9.765926 21.143704 21.522963-0.094815 11.662222-9.671111 21.143704-21.333333 21.143703z" p-id="4564"></path><path d="M512 128c51.863704 0 102.115556 10.145185 149.428148 30.151111 45.700741 19.342222 86.755556 47.028148 122.026667 82.299259 35.271111 35.271111 62.957037 76.325926 82.299259 122.026667 20.100741 47.407407 30.245926 97.659259 30.245926 149.522963s-10.145185 102.115556-30.151111 149.428148c-19.342222 45.700741-47.028148 86.755556-82.299259 122.026667s-76.325926 62.957037-122.026667 82.299259c-47.407407 20.100741-97.659259 30.245926-149.522963 30.245926s-102.115556-10.145185-149.428148-30.151111c-45.700741-19.342222-86.755556-47.028148-122.026667-82.299259s-62.957037-76.325926-82.299259-122.026667c-20.100741-47.407407-30.245926-97.659259-30.245926-149.522963s10.145185-102.115556 30.151111-149.428148c19.342222-45.700741 47.028148-86.755556 82.299259-122.026667 35.271111-35.271111 76.325926-62.957037 122.026667-82.299259 47.407407-20.100741 97.659259-30.245926 149.522963-30.245926m0-42.666667C276.385185 85.333333 85.333333 276.385185 85.333333 512s191.051852 426.666667 426.666667 426.666667 426.666667-191.051852 426.666667-426.666667S747.614815 85.333333 512 85.333333z" p-id="4565"></path><path d="M512 532.29037c-11.757037 0-21.333333-9.576296-21.333333-21.333333v-237.037037c0-11.757037 9.576296-21.333333 21.333333-21.333333s21.333333 9.576296 21.333333 21.333333v237.037037c0 11.757037-9.576296 21.333333-21.333333 21.333333z" p-id="4566"></path></svg>